<?xml version="1.0" encoding="UTF-8" standalone="no"?>
<svg
   xmlns:dc="http://purl.org/dc/elements/1.1/"
   xmlns:cc="http://creativecommons.org/ns#"
   xmlns:rdf="http://www.w3.org/1999/02/22-rdf-syntax-ns#"
   xmlns:svg="http://www.w3.org/2000/svg"
   xmlns="http://www.w3.org/2000/svg"
   xmlns:sodipodi="http://sodipodi.sourceforge.net/DTD/sodipodi-0.dtd"
   xmlns:inkscape="http://www.inkscape.org/namespaces/inkscape"
   width="210mm"
   height="297mm"
   viewBox="0 0 210 297"
   version="1.1"
   id="svg1119"
   inkscape:version="1.0.1 (3bc2e813f5, 2020-09-07)"
   sodipodi:docname="Zeichnung.svg">
  <defs
     id="defs1113" />
  <sodipodi:namedview
     id="base"
     pagecolor="#ffffff"
     bordercolor="#666666"
     borderopacity="1.0"
     inkscape:pageopacity="0.0"
     inkscape:pageshadow="2"
     inkscape:zoom="0.35"
     inkscape:cx="400"
     inkscape:cy="560"
     inkscape:document-units="mm"
     inkscape:current-layer="layer1"
     inkscape:document-rotation="0"
     showgrid="false"
     inkscape:window-width="1920"
     inkscape:window-height="1009"
     inkscape:window-x="1912"
     inkscape:window-y="-8"
     inkscape:window-maximized="1" />
  <metadata
     id="metadata1116">
    <rdf:RDF>
      <cc:Work
         rdf:about="">
        <dc:format>image/svg+xml</dc:format>
        <dc:type
           rdf:resource="http://purl.org/dc/dcmitype/StillImage" />
        <dc:title></dc:title>
      </cc:Work>
    </rdf:RDF>
  </metadata>
  <g
     inkscape:label="Ebene 1"
     inkscape:groupmode="layer"
     id="layer1">
    <path
       style="fill:#ffffff;stroke-width:0.264583;fill-opacity:1"
       d="m 66.469155,239.80242 c 5.60418,-11.13968 14.944,-21.73598 24.25105,-27.51349 3.13886,-1.9485 7.58351,-4.03247 10.709275,-5.02127 1.634,-0.5169 2.76139,-1.01835 2.83392,-1.26051 0.26128,-0.87232 0.66074,-9.01571 0.82439,-16.80629 0.44323,-21.09933 -1.63136,-39.67012 -5.881905,-52.6521 -0.97289,-2.97138 -1.89531,-4.96074 -2.2412,-4.83353 -0.2527,0.0929 -3.65084,2.85235 -28.50525,23.14736 l -20.80803,16.99093 -1.27816,-1.3805 c -2.75624,-2.97693 -5.17965,-7.2227 -6.67741,-11.69867 -1.35718,-4.0559 -1.7769,-7.32419 -1.61401,-12.56829 0.13736,-4.42224 0.42684,-6.26639 1.64173,-10.45874 2.87156,-9.90916 10.24383,-19.65816 19.51748,-25.80967 1.40148,-0.92965 2.46278,-1.77036 2.35843,-1.86824 -0.10435,-0.0979 -1.678,-0.61222 -3.49701,-1.14299 -4.71956,-1.37712 -4.71988,-1.37728 -5.00686,-2.48976 -1.40135,-5.432248 -3.77699,-14.284447 -3.92895,-14.640198 -0.15511,-0.36311 -1.36961,0.62017 -6.27774,5.082601 -3.34697,3.043039 -6.22944,5.537587 -6.40548,5.543437 -0.38639,0.0128 -18.11996,-5.244318 -18.30102,-5.425377 -0.0699,-0.0699 0.0881,-1.048332 0.35128,-2.174211 2.90515,-12.43013 12.54836,-22.47636 25.81043,-26.88914 5.01604,-1.66902 7.41976,-2.05003 13.89129,-2.20191 4.59052,-0.10773 6.46476,-0.0439 8.86355,0.30174 15.44115,2.22505 29.3373,11.2433 36.530895,23.70763 0.7533,1.30523 1.42514,2.37316 1.49298,2.37316 0.0679,0 0.73766,-0.51789 1.48847,-1.15087 4.99031,-4.20712 12.76993,-7.85347 20.15053,-9.44466 3.38196,-0.72912 13.40516,-1.03107 17.17343,-0.51735 10.44415,1.42384 19.47007,5.78776 26.50436,12.814541 5.01011,5.004758 8.16079,10.273337 9.75019,16.304307 1.05066,3.9867 1.49173,8.95243 1.03866,11.69351 l -0.164,0.99219 h -9.32737 -9.32738 l -4.1162,-6.77614 -4.11619,-6.77614 -0.87546,1.41315 c -0.4815,0.77724 -2.36465,3.85627 -4.18478,6.84229 l -3.30934,5.42913 -16.44694,0.26458 c -9.04582,0.14552 -16.52825,0.34621 -16.62762,0.44598 -0.0994,0.0998 0.51712,0.99273 1.36999,1.98437 7.2571,8.4379 14.48657,23.62734 18.85694,39.61926 3.52159,12.88609 5.48867,25.38917 6.77708,43.0762 l 0.16836,2.31121 1.10105,0.27754 c 5.64551,1.42304 13.61262,5.5483 18.56355,9.61197 5.20921,4.27564 9.75023,9.20749 13.71998,14.90078 1.29203,1.853 4.93315,7.89909 4.93315,8.19152 0,0.0544 -25.36181,0.0989 -56.35958,0.0989 H 65.504135 Z"
       id="path1102" />
  </g>
</svg>
